<?xml version="1.0" encoding="UTF-8" standalone="no"?>
<!-- Created with Inkscape (http://www.inkscape.org/) -->

<svg
   xmlns:dc="http://purl.org/dc/elements/1.1/"
   xmlns:cc="http://creativecommons.org/ns#"
   xmlns:rdf="http://www.w3.org/1999/02/22-rdf-syntax-ns#"
   xmlns:svg="http://www.w3.org/2000/svg"
   xmlns="http://www.w3.org/2000/svg"
   xmlns:sodipodi="http://sodipodi.sourceforge.net/DTD/sodipodi-0.dtd"
   xmlns:inkscape="http://www.inkscape.org/namespaces/inkscape"
   width="127.02823mm"
   height="130.49908mm"
   viewBox="0 0 127.02823 130.49908"
   version="1.1"
   id="svg8"
   inkscape:version="0.92.3 (2405546, 2018-03-11)"
   sodipodi:docname="logo.svg">
  <defs
     id="defs2" />
  <sodipodi:namedview
     id="base"
     pagecolor="#ffffff"
     bordercolor="#666666"
     borderopacity="1.0"
     inkscape:pageopacity="0.0"
     inkscape:pageshadow="2"
     inkscape:zoom="0.7"
     inkscape:cx="293.53988"
     inkscape:cy="74.325953"
     inkscape:document-units="mm"
     inkscape:current-layer="layer1"
     showgrid="false"
     showguides="true"
     inkscape:guide-bbox="true"
     inkscape:window-width="1680"
     inkscape:window-height="987"
     inkscape:window-x="-8"
     inkscape:window-y="1"
     inkscape:window-maximized="1">
    <inkscape:grid
       type="xygrid"
       id="grid73"
       originx="-42.333333"
       originy="-147.61292" />
  </sodipodi:namedview>
  <metadata
     id="metadata5">
    <rdf:RDF>
      <cc:Work
         rdf:about="">
        <dc:format>image/svg+xml</dc:format>
        <dc:type
           rdf:resource="http://purl.org/dc/dcmitype/StillImage" />
        <dc:title />
      </cc:Work>
    </rdf:RDF>
  </metadata>
  <g
     inkscape:label="Capa 1"
     inkscape:groupmode="layer"
     id="layer1"
     transform="translate(-42.333332,-18.887988)">
    <text
       xml:space="preserve"
       style="font-style:normal;font-weight:normal;font-size:10.58333302px;line-height:1.25;font-family:sans-serif;letter-spacing:0px;word-spacing:0px;fill:#000000;fill-opacity:1;stroke:none;stroke-width:0.26458332"
       x="34.773811"
       y="78.529755"
       id="text16"><tspan
         sodipodi:role="line"
         id="tspan14"
         x="34.773811"
         y="88.185249"
         style="stroke-width:0.26458332" /></text>
    <rect
       style="fill:#000080;stroke-width:0.27389601"
       id="rect69"
       width="125.11014"
       height="130.02382"
       x="43.845238"
       y="19.1875"
       ry="65.011909"
       rx="62.555069" />
    <g
       aria-label="C"
       transform="matrix(-0.77494996,0.22492254,0.32319848,1.1966003,0.45503522,1.2206504)"
       style="font-style:normal;font-variant:normal;font-weight:normal;font-stretch:normal;font-size:120.55989838px;line-height:1.25;font-family:'!Y2KBUG';-inkscape-font-specification:'!Y2KBUG';letter-spacing:0px;word-spacing:0px;fill:#ffff00;fill-opacity:1;stroke:none;stroke-width:3.01399779"
       id="text45">
      <path
         d="m -45.031696,50.354496 q -0.85612,5.023154 -7.019012,14.430014 l -0.623487,0.0068 q -0.408519,-4.321144 -4.08129,-6.935293 -3.56886,-2.615287 -8.245005,-2.564097 -9.040552,0.09896 -15.362885,11.670378 -5.128796,9.592159 -5.373616,19.130855 -0.373536,14.553887 8.655692,27.038657 9.333404,12.77636 23.780463,16.55058 l 0.605817,0.68153 q -11.531974,0.028 -22.578053,-6.7328 -10.536601,-6.37309 -16.521598,-16.04019 -0.585622,-1.46824 -1.86332,-4.30523 -0.904937,-1.1698 -2.187682,-3.810115 -3.300881,-9.008333 -2.987922,-21.20213 0.131258,-5.113528 4.504878,-13.616018 4.480071,-8.601964 4.467445,-8.110278 0.03791,-1.475055 -1.812409,-2.241277 -1.743824,-0.865696 -3.408978,-0.749156 l 0.03289,-1.278384 46.345812,-0.507341 q 1.454801,-0.01593 3.67234,-1.416531 z"
         style="font-style:normal;font-variant:normal;font-weight:normal;font-stretch:normal;font-family:Abaddon™;-inkscape-font-specification:Abaddon™;fill:#ffff00;stroke-width:2.52682686"
         id="path79"
         inkscape:connector-curvature="0" />
    </g>
    <text
       xml:space="preserve"
       style="font-style:normal;font-variant:normal;font-weight:normal;font-stretch:normal;font-size:67.61265564px;line-height:1.25;font-family:Alpine;-inkscape-font-specification:Alpine;letter-spacing:0px;word-spacing:0px;fill:#000000;fill-opacity:1;stroke:none;stroke-width:1.69031644"
       x="85.882179"
       y="76.669762"
       id="text84"
       transform="scale(0.78739147,1.2700163)"><tspan
         sodipodi:role="line"
         id="tspan82"
         x="85.882179"
         y="132.78741"
         style="font-style:normal;font-variant:normal;font-weight:normal;font-stretch:normal;font-family:'Dumbledor 3 Cut Up';-inkscape-font-specification:'Dumbledor 3 Cut Up';stroke-width:1.69031644" /></text>
    <g
       aria-label="C"
       transform="matrix(0.77494995,0.22492254,-0.32319849,1.1966003,211.46194,1.5375973)"
       style="font-style:normal;font-variant:normal;font-weight:normal;font-stretch:normal;font-size:120.55989838px;line-height:1.25;font-family:'!Y2KBUG';-inkscape-font-specification:'!Y2KBUG';letter-spacing:0px;word-spacing:0px;fill:#ffff00;fill-opacity:1;stroke:none;stroke-width:3.01399779"
       id="text45-8">
      <path
         d="m -43.694122,50.053209 q -0.856122,5.023153 -7.019013,14.430013 l -0.623486,0.0068 q -0.40852,-4.321144 -4.081291,-6.935293 -3.568859,-2.615289 -8.245007,-2.5641 -9.040549,0.09896 -15.362883,11.670379 -5.128796,9.59216 -5.373615,19.130856 -0.373536,14.553886 8.655689,27.038666 9.333407,12.77636 23.780463,16.55058 l 0.605819,0.68154 q -11.531973,0.0279 -22.578054,-6.7328 -10.536601,-6.3731 -16.521596,-16.04021 -0.585626,-1.46824 -1.86332,-4.30522 -0.904942,-1.16981 -2.187684,-3.810125 -3.300887,-9.008334 -2.987919,-21.20213 0.131228,-5.113527 4.504874,-13.616017 4.480069,-8.601962 4.467449,-8.110277 0.03791,-1.475057 -1.812407,-2.241278 -1.743831,-0.865696 -3.408983,-0.749158 l 0.03279,-1.278381 46.345816,-0.507342 q 1.454802,-0.01593 3.672337,-1.416531 z"
         style="font-style:normal;font-variant:normal;font-weight:normal;font-stretch:normal;font-family:Abaddon™;-inkscape-font-specification:Abaddon™;fill:#ffff00;stroke-width:2.52682686"
         id="path79-9"
         inkscape:connector-curvature="0" />
    </g>
    <text
       xml:space="preserve"
       style="font-style:normal;font-variant:normal;font-weight:normal;font-stretch:normal;font-size:77.16656494px;line-height:1.25;font-family:Alpine;-inkscape-font-specification:Alpine;letter-spacing:0px;word-spacing:0px;fill:#ffff00;fill-opacity:1;stroke:none;stroke-width:1.92916417"
       x="113.84806"
       y="-190.17882"
       id="text152"
       transform="matrix(-0.25812947,1.3637227,-0.77817979,0.23717334,0,0)"><tspan
         sodipodi:role="line"
         id="tspan150"
         x="113.84806"
         y="-190.17882"
         style="fill:#ffff00;stroke-width:1.92916417">-</tspan></text>
  </g>
</svg>
